<svg width="33" height="62" viewBox="0 0 33 62" fill="none" xmlns="http://www.w3.org/2000/svg">
<path d="M14.3483 14.8849C14.9516 13.9888 16.1382 13.7372 17.0408 14.2967L17.1267 14.3535L17.5907 14.6836C22.3753 18.1748 26.8359 24.1978 28.4056 32.0536C30.0363 40.2154 28.5116 50.1667 21.3284 61.0967C20.7159 62.0287 19.4747 62.2805 18.5559 61.6592C17.6372 61.0378 17.3889 59.7787 18.0014 58.8467C24.6804 48.6839 25.8767 39.8182 24.4863 32.859C23.129 26.0665 19.2737 20.9097 15.2608 17.98L14.8722 17.7034L14.7883 17.642C13.9464 16.9928 13.7453 15.7809 14.3483 14.8849Z" fill="#1CE434"/>
<path d="M10 2.7C10 1.20883 11.1129 0 12.4857 0H13.5143C14.8871 0 16 1.20883 16 2.7V24.3C16 25.7912 14.8871 27 13.5143 27H12.4857C11.1129 27 10 25.7912 10 24.3V2.7Z" fill="#CD0505"/>
<path d="M24.3 10C25.7912 10 27 11.2984 27 12.9L27 14.1C27 15.7016 25.7912 17 24.3 17L2.7 17C1.20883 17 -2.49226e-07 15.7016 -1.79217e-07 14.1L-1.26763e-07 12.9C-5.67537e-08 11.2984 1.20883 10 2.7 10L24.3 10Z" fill="#CD0505"/>
<path d="M31.1421 29.9899C30.1161 32.9859 28.2197 35.0501 26.9066 34.6003C25.5934 34.1506 25.3607 31.3573 26.3868 28.3612C27.4128 25.3652 29.3092 23.301 30.6223 23.7508C31.9355 24.2005 32.1682 26.9938 31.1421 29.9899Z" fill="#1CE434"/>
<path d="M24.5638 43.713C25.8239 46.6184 25.7356 49.4549 24.3666 50.0487C22.9976 50.6424 20.8664 48.7684 19.6063 45.863C18.3463 42.9576 18.4346 40.121 19.8036 39.5273C21.1726 38.9336 23.3038 40.8076 24.5638 43.713Z" fill="#1CE434"/>
</svg>
